<svg width="118" height="56" viewBox="0 0 118 56" fill="none" xmlns="http://www.w3.org/2000/svg">
<g filter="url(#filter0_d_2_101)">
<path d="M20.9961 7.06934C20.3809 7.41113 19.7998 7.7985 19.2529 8.23145C18.2731 9.05176 17.5439 9.46191 17.0654 9.46191C16.7008 9.46191 16.3704 9.3138 16.0742 9.01758C15.7552 8.69857 15.5957 8.34538 15.5957 7.95801C15.5957 7.11491 16.7008 5.86165 18.9111 4.19824C22.3063 1.64616 26.0433 0.370117 30.1221 0.370117C33.2894 0.370117 35.8073 1.4069 37.6758 3.48047C39.362 5.34896 40.2051 7.60482 40.2051 10.248C40.2051 14.623 38.5872 19.7614 35.3516 25.6631C31.569 32.5674 26.6471 38.2868 20.5859 42.8213C16.097 46.1937 12.1094 47.8799 8.62305 47.8799C7.25586 47.8799 6.21908 47.4697 5.5127 46.6494C4.94303 45.9658 4.6582 45.2367 4.6582 44.4619C4.6582 43.2998 5.41016 40.6794 6.91406 36.6006C9.19271 30.4938 12.0182 24.125 15.3906 17.4941C15.8919 16.4915 17.7604 13.0166 20.9961 7.06934ZM24.209 5.49707C24.8926 5.83887 25.2344 6.21484 25.2344 6.625C25.2344 6.92122 24.8014 7.85547 23.9355 9.42773C19.6745 17.0612 16.0742 24.3757 13.1348 31.3711C10.4688 37.6602 9.13574 41.5225 9.13574 42.958C9.13574 43.8695 9.56868 44.3252 10.4346 44.3252C11.8929 44.3252 13.8525 43.5391 16.3135 41.9668C19.3896 40.0299 22.7734 36.7829 26.4648 32.2256C29.8145 28.124 32.4577 23.7604 34.3945 19.1348C35.8984 15.5801 36.6504 12.4242 36.6504 9.66699C36.6504 7.70736 36.1719 6.24902 35.2148 5.29199C34.2578 4.31217 32.8223 3.82227 30.9082 3.82227C28.9714 3.82227 26.7383 4.38053 24.209 5.49707ZM41.5039 32.0889C43.737 29.6963 46.3118 27.3607 49.2285 25.082C50.2767 24.2617 51.3932 23.4984 52.5781 22.792C53.1706 22.4502 53.5465 22.2793 53.7061 22.2793C54.0479 22.2793 54.3896 22.5299 54.7314 23.0312C54.9365 23.3047 55.0391 23.5553 55.0391 23.7832C55.0391 24.1934 54.6061 24.7516 53.7402 25.458C51.416 27.3037 50.2539 28.6937 50.2539 29.6279C50.2539 30.152 50.5501 30.4141 51.1426 30.4141C52.1224 30.4141 53.8086 29.6051 56.2012 27.9873C56.6113 27.7139 56.9531 27.5771 57.2266 27.5771C57.4089 27.5771 57.5911 27.6683 57.7734 27.8506C57.9785 28.0557 58.0811 28.2721 58.0811 28.5C58.0811 29.1836 57.124 30.2318 55.21 31.6445C53.2048 33.1484 51.3021 33.9004 49.502 33.9004C48.7728 33.9004 48.1006 33.7067 47.4854 33.3193C46.9613 33.0003 46.6992 32.4307 46.6992 31.6104C46.6992 31.0407 46.9385 30.3913 47.417 29.6621C45.6169 30.9382 43.4977 33.1257 41.0596 36.2246C39.6468 38.1387 38.2454 40.4971 36.8555 43.2998C36.3314 44.348 35.682 44.8721 34.9072 44.8721C34.0641 44.8721 33.6426 44.4733 33.6426 43.6758C33.6426 42.901 34.3034 40.8275 35.625 37.4551C37.5846 32.4421 39.6354 28.557 41.7773 25.7998C43.099 24.0908 44.2041 23.2363 45.0928 23.2363C45.389 23.2363 45.6624 23.3275 45.9131 23.5098C46.2093 23.7376 46.3574 24.0225 46.3574 24.3643C46.3574 24.7061 46.1296 25.1846 45.6738 25.7998C45.5827 25.9137 44.9788 26.6771 43.8623 28.0898C42.8369 29.4342 42.0508 30.7673 41.5039 32.0889ZM65.6348 22.8604C66.0221 22.8604 66.3411 23.0085 66.5918 23.3047C66.7741 23.5553 66.8652 23.806 66.8652 24.0566C66.8652 24.4668 66.5348 25.1504 65.874 26.1074C63.5042 29.776 61.818 32.7952 60.8154 35.165C59.7445 37.6032 58.7988 40.1097 57.9785 42.6846C57.6139 43.8239 57.0443 44.3936 56.2695 44.3936C55.8138 44.3936 55.4492 44.2113 55.1758 43.8467C54.9251 43.5505 54.7998 43.2314 54.7998 42.8896C54.7998 42.2061 55.529 39.9274 56.9873 36.0537C58.1266 33.0003 59.9723 29.6279 62.5244 25.9365C63.3447 24.7288 63.96 23.9199 64.3701 23.5098C64.7803 23.0768 65.2018 22.8604 65.6348 22.8604ZM72.1289 10.1797C73.1543 10.1797 73.667 10.7038 73.667 11.752C73.667 12.709 73.1657 13.7686 72.1631 14.9307C71.2061 16.0472 70.2832 16.6055 69.3945 16.6055C68.9616 16.6055 68.6084 16.446 68.335 16.127C68.0615 15.8307 67.9248 15.4661 67.9248 15.0332C67.9248 13.9395 68.5286 12.7773 69.7363 11.5469C70.625 10.6354 71.4225 10.1797 72.1289 10.1797ZM72.2314 31.6104C72.5277 31.3369 72.8125 31.0635 73.0859 30.79C77.8483 26.1416 81.0384 23.8174 82.6562 23.8174C83.5449 23.8174 83.9893 24.3073 83.9893 25.2871C83.9893 25.9707 83.5905 26.7796 82.793 27.7139C78.4408 32.7952 76.2646 37.2728 76.2646 41.1465C76.2646 42.3997 76.6064 43.596 77.29 44.7354C77.609 45.2594 77.7686 45.6696 77.7686 45.9658C77.7686 46.2393 77.6318 46.5013 77.3584 46.752C77.0622 47.071 76.709 47.2305 76.2988 47.2305C75.3646 47.2305 74.5785 46.638 73.9404 45.4531C73.3252 44.3366 73.0176 42.9808 73.0176 41.3857C73.0176 38.3096 74.1797 34.903 76.5039 31.166C73.4049 33.1484 70.5225 36.6576 67.8564 41.6934C67.1729 42.901 66.4437 43.5049 65.6689 43.5049C65.2816 43.5049 64.9626 43.3682 64.7119 43.0947C64.3929 42.7757 64.2334 42.3656 64.2334 41.8643C64.2334 40.6338 65.6348 37.4095 68.4375 32.1914C69.9414 29.3659 71.1263 27.3151 71.9922 26.0391C72.8581 24.7858 73.5986 24.1592 74.2139 24.1592C74.5101 24.1592 74.7949 24.2959 75.0684 24.5693C75.3874 24.8883 75.5469 25.2529 75.5469 25.6631C75.5469 26.1644 75.2165 26.8822 74.5557 27.8164C73.5986 29.2064 72.8239 30.471 72.2314 31.6104ZM97.9688 28.7051C96.4876 32.3737 95.7471 35.165 95.7471 37.0791C95.7471 38.0133 95.9294 38.7881 96.2939 39.4033C96.7497 40.1781 97.3535 40.5654 98.1055 40.5654C99.6549 40.5654 101.444 39.5286 103.472 37.4551C104.816 36.1335 105.944 34.7891 106.855 33.4219C107.448 32.5104 108.006 32.0547 108.53 32.0547C109.054 32.0547 109.316 32.3167 109.316 32.8408C109.316 33.7067 108.268 35.484 106.172 38.1729C103.073 42.1605 100.065 44.1543 97.1484 44.1543C95.3939 44.1543 94.152 43.2998 93.4229 41.5908C92.876 40.3376 92.6025 39.016 92.6025 37.626C92.6025 36.4639 92.876 34.7435 93.4229 32.4648C91.9417 33.6953 89.6973 36.7031 86.6895 41.4883C85.8919 42.7871 85.1628 43.4365 84.502 43.4365C84.1602 43.4365 83.8639 43.2884 83.6133 42.9922C83.3626 42.6732 83.2373 42.3542 83.2373 42.0352C83.2373 41.1237 84.4336 38.0817 86.8262 32.9092C91.0417 23.863 95.5534 16.2523 100.361 10.0771C102.959 6.70475 105.295 4.24382 107.368 2.69434C109.237 1.28158 110.729 0.575195 111.846 0.575195C112.347 0.575195 112.791 0.780273 113.179 1.19043C113.68 1.69173 113.931 2.30697 113.931 3.03613C113.931 4.97298 112.917 7.45671 110.889 10.4873C108.77 13.609 105.169 17.3802 100.088 21.8008C97.2396 24.2617 94.6761 26.1986 92.3975 27.6113C92.1012 28.2038 91.2695 29.9355 89.9023 32.8066C92.7507 29.7305 95.0065 27.6113 96.6699 26.4492C97.7409 25.7201 99.1878 24.9567 101.011 24.1592C102.241 23.6351 103.13 23.373 103.677 23.373C103.973 23.373 104.235 23.487 104.463 23.7148C104.714 23.9199 104.839 24.1934 104.839 24.5352C104.839 25.2871 104.326 25.8112 103.301 26.1074C101.569 26.6315 99.7917 27.4974 97.9688 28.7051ZM95.0293 22.8262C98.7663 20.3652 102.253 17.2321 105.488 13.4268C107.106 11.5355 108.405 9.71257 109.385 7.95801C110.068 6.72754 110.41 5.85026 110.41 5.32617C110.41 4.80208 110.171 4.54004 109.692 4.54004C108.416 4.54004 106.217 6.49967 103.096 10.4189C100.521 13.6774 97.832 17.8132 95.0293 22.8262Z" fill="#F76372"/>
</g>
<defs>
<filter id="filter0_d_2_101" x="0.658203" y="0.370117" width="117.272" height="55.5098" filterUnits="userSpaceOnUse" color-interpolation-filters="sRGB">
<feFlood flood-opacity="0" result="BackgroundImageFix"/>
<feColorMatrix in="SourceAlpha" type="matrix" values="0 0 0 0 0 0 0 0 0 0 0 0 0 0 0 0 0 0 127 0" result="hardAlpha"/>
<feOffset dy="4"/>
<feGaussianBlur stdDeviation="2"/>
<feComposite in2="hardAlpha" operator="out"/>
<feColorMatrix type="matrix" values="0 0 0 0 0 0 0 0 0 0 0 0 0 0 0 0 0 0 0.25 0"/>
<feBlend mode="normal" in2="BackgroundImageFix" result="effect1_dropShadow_2_101"/>
<feBlend mode="normal" in="SourceGraphic" in2="effect1_dropShadow_2_101" result="shape"/>
</filter>
</defs>
</svg>
