<svg width="133" height="69" viewBox="0 0 133 69" fill="none" xmlns="http://www.w3.org/2000/svg">
<g filter="url(#filter0_d_2_101)">
<path d="M33.92 24.26C33.8733 27.4333 33.4767 30.5367 32.73 33.57C31.9833 36.5567 30.84 39.4267 29.3 42.18C27.8533 44.7933 26.1733 47.2433 24.26 49.53C22.3467 51.77 20.1767 53.7767 17.75 55.55C17.1433 56.0167 16.5133 56.4367 15.86 56.81C15.2067 57.1367 14.5067 57.4167 13.76 57.65C13.5267 57.6967 13.27 57.7433 12.99 57.79C12.71 57.8367 12.4533 57.8833 12.22 57.93C11.0533 58.0233 9.93333 57.65 8.86 56.81C7.83333 55.97 7.27333 54.9433 7.18 53.73C7.18 53.4033 7.20333 53.1 7.25 52.82C7.34333 52.54 7.53 52.33 7.81 52.19C8.13667 52.0967 8.3 51.9567 8.3 51.77C8.3 51.5367 8.27667 51.3267 8.23 51.14C7.81 49.3667 7.46 47.5 7.18 45.54C6.99333 44.3267 6.78333 43.1133 6.55 41.9C6.36333 40.64 6.22333 39.38 6.13 38.12C5.85 34.6667 5.59333 31.2133 5.36 27.76C5.12667 24.3067 4.89333 20.8533 4.66 17.4V13.62C4.66 12.8267 4.77667 12.1033 5.01 11.45C5.24333 10.7967 5.57 10.12 5.99 9.42C7.11 7.69333 8.44 6.34 9.98 5.36C11.5667 4.38 13.3633 3.70333 15.37 3.33C17.4233 2.95666 19.3367 3.07333 21.11 3.68C22.8833 4.24 24.5633 5.15 26.15 6.41C28.4367 8.27666 30.1867 10.47 31.4 12.99C32.6133 15.4633 33.3833 18.17 33.71 21.11C33.8033 21.4367 33.85 21.7633 33.85 22.09C33.85 22.37 33.8733 22.6967 33.92 23.07V24.26ZM12.92 53.03C13.2933 52.8433 13.62 52.6333 13.9 52.4C14.18 52.1667 14.46 51.9567 14.74 51.77C16.0933 50.6033 17.3067 49.32 18.38 47.92C19.5 46.52 20.55 45.0733 21.53 43.58C22.8833 41.5733 23.9567 39.45 24.75 37.21C25.59 34.97 26.2433 32.7067 26.71 30.42C27.1767 28.0867 27.3633 25.7767 27.27 23.49C27.1767 21.2033 26.6633 18.94 25.73 16.7C25.4033 15.86 24.9833 15.0433 24.47 14.25C24.0033 13.4567 23.4433 12.7567 22.79 12.15C21.4833 10.7967 20.1067 10.0267 18.66 9.84C17.26 9.60667 15.93 9.77 14.67 10.33C13.41 10.8433 12.3133 11.5667 11.38 12.5C11.1933 12.6867 11.0533 12.8733 10.96 13.06C10.8667 13.2467 10.82 13.48 10.82 13.76C10.82 14.2267 10.82 14.7167 10.82 15.23C10.8667 15.6967 10.9133 16.1867 10.96 16.7C11.2867 19.1267 11.52 21.6 11.66 24.12C11.8467 26.64 12.0333 29.1367 12.22 31.61C12.3133 32.7767 12.4067 33.9667 12.5 35.18C12.5933 36.3467 12.6633 37.5367 12.71 38.75C12.8033 40.8967 12.85 43.02 12.85 45.12C12.85 47.22 12.85 49.3667 12.85 51.56C12.85 51.7467 12.8267 51.98 12.78 52.26C12.78 52.4933 12.8267 52.75 12.92 53.03ZM45.5498 35.18C45.8765 34.9467 46.0865 34.7133 46.1798 34.48C46.2732 34.2 46.3665 33.9667 46.4598 33.78C46.8798 32.9867 47.3698 32.24 47.9298 31.54C48.4898 30.7933 49.1665 30.1867 49.9598 29.72C51.0332 29.0667 52.0832 28.6933 53.1098 28.6C54.1832 28.46 55.2565 28.7167 56.3298 29.37C57.1232 29.79 57.7065 30.42 58.0798 31.26C58.4998 32.1 58.6165 32.94 58.4298 33.78C58.2898 34.6667 57.9165 35.25 57.3098 35.53C56.7032 35.81 56.0032 35.7167 55.2098 35.25C54.7898 35.0167 54.4398 34.9 54.1598 34.9C53.8798 34.9 53.5532 35.0867 53.1798 35.46C52.9932 35.6467 52.8065 35.88 52.6198 36.16C52.4798 36.44 52.3165 36.6967 52.1298 36.93C51.8032 37.6767 51.5232 38.4233 51.2898 39.17C51.0565 39.87 50.8232 40.5933 50.5898 41.34C50.1698 42.7867 49.7732 44.2567 49.3998 45.75C49.0732 47.1967 48.7932 48.6667 48.5598 50.16C48.4665 51.0933 48.3732 52.0267 48.2798 52.96C48.1865 53.8933 48.1398 54.8267 48.1398 55.76C48.1398 56.0867 48.1165 56.4367 48.0698 56.81C48.0698 57.1833 47.9998 57.5567 47.8598 57.93C47.3932 59.33 46.4365 60.03 44.9898 60.03C43.5432 60.17 42.4932 59.5867 41.8398 58.28C41.6532 57.9067 41.5132 57.51 41.4198 57.09C41.3732 56.67 41.3032 56.2967 41.2098 55.97C40.8832 54.01 40.6032 52.0733 40.3698 50.16C40.1365 48.2 39.9032 46.24 39.6698 44.28C39.4832 42.3667 39.3665 40.43 39.3198 38.47C39.2732 36.4633 39.2732 34.4567 39.3198 32.45C39.3198 31.1433 39.8098 30.1867 40.7898 29.58C41.6298 29.0667 42.4932 28.9967 43.3798 29.37C44.2665 29.6967 44.8498 30.3267 45.1298 31.26C45.4098 32.0067 45.5498 32.7533 45.5498 33.5C45.5032 33.7333 45.4798 33.99 45.4798 34.27C45.5265 34.55 45.5498 34.8533 45.5498 35.18ZM67.9909 23.42C66.6375 24.0267 65.4709 23.84 64.4909 22.86C64.1642 22.4867 63.9542 21.9967 63.8609 21.39C63.7675 20.7833 63.8375 20.2 64.0709 19.64C64.3509 19.0333 64.8175 18.5433 65.4709 18.17C66.1242 17.75 66.7775 17.54 67.4309 17.54C68.7842 17.54 69.6942 18.17 70.1609 19.43C70.3942 19.99 70.4175 20.5733 70.2309 21.18C70.0909 21.74 69.7642 22.23 69.2509 22.65C69.0642 22.8367 68.8542 23 68.6209 23.14C68.4342 23.2333 68.2242 23.3267 67.9909 23.42ZM70.7909 52.47C70.9775 53.45 70.6742 54.15 69.8809 54.57C69.0409 54.99 68.2009 54.8967 67.3609 54.29C66.9875 53.9633 66.7075 53.59 66.5209 53.17C66.3342 52.75 66.1475 52.3067 65.9609 51.84C65.8209 51.1867 65.6809 50.51 65.5409 49.81C65.4475 49.11 65.3542 48.4333 65.2609 47.78C64.9809 45.4467 64.7475 43.1133 64.5609 40.78C64.4209 38.4 64.4442 36.0433 64.6309 33.71C64.6775 33.1967 64.7475 32.6833 64.8409 32.17C64.9342 31.61 65.1442 31.0967 65.4709 30.63C65.7042 30.1633 66.0075 29.79 66.3809 29.51C66.8009 29.23 67.2909 29.09 67.8509 29.09C68.9242 29.1367 69.6942 29.6967 70.1609 30.77C70.5809 31.61 70.7909 32.52 70.7909 33.5V43.16C70.7442 43.72 70.6975 44.3967 70.6509 45.19C70.6042 45.9833 70.5809 46.8467 70.5809 47.78C70.5809 48.5267 70.5809 49.2967 70.5809 50.09C70.6275 50.8833 70.6975 51.6767 70.7909 52.47ZM90.0239 39.45C89.1839 40.1967 88.5772 40.9667 88.2039 41.76C87.2239 43.4867 86.4306 45.3067 85.8239 47.22C85.2172 49.1333 84.7506 51.0933 84.4239 53.1C84.3772 53.5667 84.2839 54.0333 84.1439 54.5C84.0039 54.9667 83.8172 55.3867 83.5839 55.76C82.8839 56.9267 81.9506 57.44 80.7839 57.3C80.1772 57.3 79.6639 57.1367 79.2439 56.81C78.8239 56.4833 78.4506 56.0633 78.1239 55.55C77.9372 55.13 77.7972 54.6867 77.7039 54.22C77.6572 53.7533 77.5872 53.2867 77.4939 52.82C77.2606 50.9533 77.0039 49.0867 76.7239 47.22C76.4906 45.3067 76.3272 43.4167 76.2339 41.55C76.1406 40.29 76.1406 39.03 76.2339 37.77C76.3272 36.51 76.4672 35.25 76.6539 33.99C76.6539 33.7567 76.7006 33.5467 76.7939 33.36C76.8872 33.1267 76.9572 32.9167 77.0039 32.73C77.4239 31.5633 78.1939 31.05 79.3139 31.19C79.7806 31.2367 80.2006 31.4467 80.5739 31.82C80.9472 32.1933 81.1572 32.6367 81.2039 33.15C81.3439 34.27 81.4606 35.3667 81.5539 36.44C81.6939 37.5133 81.8572 38.5867 82.0439 39.66C82.0906 39.8467 82.1139 40.08 82.1139 40.36C82.1139 40.5933 82.1839 40.8267 82.3239 41.06C82.5572 40.9667 82.6972 40.85 82.7439 40.71C82.7906 40.5233 82.8372 40.36 82.8839 40.22C83.3506 39.2867 83.8172 38.3767 84.2839 37.49C84.7506 36.5567 85.2872 35.7167 85.8939 34.97C86.1739 34.5967 86.4539 34.2467 86.7339 33.92C87.0139 33.5467 87.3406 33.22 87.7139 32.94C88.9272 31.96 90.2339 31.5867 91.6339 31.82C93.0339 32.0067 94.1772 32.7767 95.0639 34.13C95.4839 34.8767 95.8106 35.67 96.0439 36.51C96.2772 37.3033 96.4406 38.12 96.5339 38.96C96.7672 40.36 96.9539 41.7833 97.0939 43.23C97.2806 44.63 97.4672 46.03 97.6539 47.43C97.7472 48.27 97.8639 49.11 98.0039 49.95C98.1906 50.7433 98.3306 51.56 98.4239 52.4C98.5172 52.7267 98.6339 53.0067 98.7739 53.24C98.9139 53.4733 99.1472 53.7067 99.4739 53.94C100.454 54.4533 100.757 55.27 100.384 56.39C99.9639 57.5567 99.2406 58.28 98.2139 58.56C97.1872 58.84 96.2072 58.6067 95.2739 57.86C94.8539 57.4867 94.5039 57.09 94.2239 56.67C93.9439 56.25 93.6872 55.8067 93.4539 55.34C92.7072 53.9867 92.1472 52.61 91.7739 51.21C91.4006 49.81 91.1206 48.34 90.9339 46.8C90.7939 45.7267 90.6772 44.63 90.5839 43.51C90.4906 42.39 90.3272 41.2933 90.0939 40.22C90.0939 40.1267 90.0706 40.0333 90.0239 39.94C90.0239 39.8 90.0239 39.6367 90.0239 39.45ZM113.604 39.24C113.884 38.8667 114.14 38.4933 114.374 38.12C114.654 37.7467 114.934 37.3967 115.214 37.07C116.054 35.81 116.847 34.5267 117.594 33.22C118.34 31.9133 119.087 30.63 119.834 29.37C119.974 29.0433 120.16 28.7633 120.394 28.53C120.674 28.2967 120.93 28.0867 121.164 27.9C121.91 27.5267 122.61 27.5267 123.264 27.9C123.964 28.2267 124.36 28.7867 124.454 29.58C124.547 30.5133 124.43 31.2833 124.104 31.89C123.217 33.7567 122.284 35.5767 121.304 37.35C120.324 39.0767 119.157 40.6867 117.804 42.18C117.337 42.6933 117.104 43.02 117.104 43.16C117.104 43.2533 117.314 43.6033 117.734 44.21C118.667 45.47 119.694 46.6367 120.814 47.71C121.934 48.7367 123.17 49.67 124.524 50.51C124.757 50.6033 124.967 50.72 125.154 50.86C125.34 50.9533 125.55 51.0467 125.784 51.14C127.09 51.3733 127.79 52.0967 127.884 53.31C127.977 53.9167 127.837 54.5 127.464 55.06C127.137 55.5733 126.717 55.9467 126.204 56.18C125.69 56.3667 125.154 56.4833 124.594 56.53C124.08 56.53 123.567 56.4833 123.054 56.39C121.094 55.83 119.344 54.9433 117.804 53.73C117.15 53.2167 116.497 52.6567 115.844 52.05C115.237 51.4433 114.607 50.86 113.954 50.3C114 50.9533 114.047 51.6067 114.094 52.26C114.14 52.9133 114.187 53.59 114.234 54.29C114.327 54.6167 114.397 54.9667 114.444 55.34C114.49 55.7133 114.56 56.0633 114.654 56.39C114.794 57.3233 114.514 57.9767 113.814 58.35C113.16 58.8633 112.46 58.84 111.714 58.28C111.107 57.86 110.664 57.3 110.384 56.6C110.057 55.8067 109.8 54.9667 109.614 54.08C109.427 53.1933 109.264 52.3067 109.124 51.42C108.75 49.8333 108.447 48.2467 108.214 46.66C107.98 45.0267 107.794 43.3933 107.654 41.76C107.467 39.9867 107.234 38.2133 106.954 36.44C106.72 34.62 106.557 32.8233 106.464 31.05C106.37 29.7433 106.277 28.4367 106.184 27.13C106.09 25.8233 106.044 24.5167 106.044 23.21C106.044 21.2033 105.997 19.1967 105.904 17.19C105.81 15.1367 105.764 13.1067 105.764 11.1C105.81 9.84 105.834 8.60333 105.834 7.39C105.834 6.17666 105.904 4.96333 106.044 3.75C106.137 3.37666 106.207 3.05 106.254 2.77C106.347 2.49 106.487 2.23333 106.674 2C107.467 0.973332 108.447 0.553332 109.614 0.739999C110.22 0.879997 110.734 1.16 111.154 1.58C111.62 1.95333 111.877 2.46666 111.924 3.12C112.017 3.4 112.064 3.68 112.064 3.96C112.064 4.19333 112.064 4.47333 112.064 4.8C112.204 7.36666 112.297 9.93333 112.344 12.5C112.437 15.0667 112.507 17.6567 112.554 20.27C112.647 23.35 112.764 26.4533 112.904 29.58C113.09 32.66 113.23 35.74 113.324 38.82C113.324 39.0533 113.417 39.1933 113.604 39.24Z" fill="#F76372"/>
</g>
<defs>
<filter id="filter0_d_2_101" x="0.659973" y="0.459991" width="131.364" height="67.78" filterUnits="userSpaceOnUse" color-interpolation-filters="sRGB">
<feFlood flood-opacity="0" result="BackgroundImageFix"/>
<feColorMatrix in="SourceAlpha" type="matrix" values="0 0 0 0 0 0 0 0 0 0 0 0 0 0 0 0 0 0 127 0" result="hardAlpha"/>
<feOffset dy="4"/>
<feGaussianBlur stdDeviation="2"/>
<feComposite in2="hardAlpha" operator="out"/>
<feColorMatrix type="matrix" values="0 0 0 0 0 0 0 0 0 0 0 0 0 0 0 0 0 0 0.25 0"/>
<feBlend mode="normal" in2="BackgroundImageFix" result="effect1_dropShadow_2_101"/>
<feBlend mode="normal" in="SourceGraphic" in2="effect1_dropShadow_2_101" result="shape"/>
</filter>
</defs>
</svg>
