<svg width="302" height="71" viewBox="0 0 302 71" fill="none" xmlns="http://www.w3.org/2000/svg">
<g filter="url(#filter0_d_2_101)">
<path d="M10.33 20.27C10.3767 25.87 12.71 30.21 17.33 33.29C18.45 34.0367 19.6167 34.69 20.83 35.25C22.09 35.81 23.3033 36.3467 24.47 36.86C25.6367 37.3267 26.8033 37.8633 27.97 38.47C29.1367 39.03 30.21 39.7067 31.19 40.5C31.7033 40.8733 32.17 41.2933 32.59 41.76C33.01 42.2267 33.36 42.7633 33.64 43.37C34.1533 44.5367 34.34 45.6567 34.2 46.73C34.1067 47.8033 33.7333 48.8767 33.08 49.95C32.52 50.9767 31.7967 51.8867 30.91 52.68C30.07 53.4733 29.16 54.22 28.18 54.92C26.8733 55.76 25.4967 56.46 24.05 57.02C22.65 57.58 21.1567 57.8833 19.57 57.93C18.03 58.07 16.5833 57.8367 15.23 57.23C14.0633 56.5767 13.27 55.69 12.85 54.57C12.4767 53.45 12.5467 52.3067 13.06 51.14C13.2933 50.5333 13.62 49.9967 14.04 49.53C14.46 49.0633 14.9033 48.62 15.37 48.2C16.2567 47.4067 17.0267 47.3367 17.68 47.99C18.38 48.5033 18.52 49.2733 18.1 50.3C18.0533 50.44 17.96 50.6033 17.82 50.79C17.7267 50.9767 17.6333 51.1633 17.54 51.35C17.4 51.6767 17.3533 51.91 17.4 52.05C17.4933 52.1433 17.7267 52.19 18.1 52.19C19.5467 52.2367 20.9 52.0267 22.16 51.56C23.1867 51.14 24.1433 50.65 25.03 50.09C25.9633 49.53 26.8033 48.83 27.55 47.99C28.2033 47.1967 28.5067 46.59 28.46 46.17C28.46 45.7033 28.0167 45.19 27.13 44.63C26.3367 44.0233 25.4733 43.5333 24.54 43.16C23.6533 42.74 22.7667 42.32 21.88 41.9C20.5267 41.2933 19.1733 40.6867 17.82 40.08C16.4667 39.4733 15.1833 38.75 13.97 37.91C12.3833 36.8367 10.96 35.6233 9.7 34.27C8.44 32.87 7.39 31.2833 6.55 29.51C5.52333 27.27 4.89333 24.8433 4.66 22.23C4.56667 20.41 4.63667 18.59 4.87 16.77C5.10333 14.95 5.59333 13.1767 6.34 11.45C6.99333 9.77 7.85667 8.25333 8.93 6.9C10.0033 5.5 11.3333 4.35666 12.92 3.47C14.6933 2.39666 16.6767 1.86 18.87 1.86C21.0633 1.86 23.21 2.88666 25.31 4.94C27.0833 6.52666 28.5067 8.32333 29.58 10.33C30.7 12.29 31.5633 14.4133 32.17 16.7C32.31 17.26 32.38 17.8433 32.38 18.45C32.4267 19.0567 32.4267 19.6867 32.38 20.34C32.3333 20.7133 32.2167 21.0633 32.03 21.39C31.8433 21.7167 31.5633 21.9733 31.19 22.16C30.4433 22.3933 29.72 22.1833 29.02 21.53C28.8333 21.3433 28.67 21.1333 28.53 20.9C28.39 20.6667 28.2733 20.4567 28.18 20.27C27.8067 19.6633 27.48 19.0333 27.2 18.38C26.92 17.7267 26.6167 17.0967 26.29 16.49C25.8233 15.4167 25.31 14.3667 24.75 13.34C24.19 12.3133 23.5367 11.3567 22.79 10.47C22.4633 10.0967 22.1367 9.74666 21.81 9.42C21.4833 9.04667 21.11 8.74333 20.69 8.51C19.3833 7.43667 17.9133 7.29666 16.28 8.09C15.72 8.41666 15.1833 8.79 14.67 9.21C14.1567 9.63 13.7133 10.12 13.34 10.68C12.5 11.7067 11.8467 12.85 11.38 14.11C10.96 15.3233 10.68 16.6067 10.54 17.96C10.4933 18.38 10.4233 18.8 10.33 19.22C10.2833 19.5933 10.2833 19.9433 10.33 20.27ZM53.0141 52.61C52.6875 52.8433 52.4308 53.1467 52.2441 53.52C52.1041 53.8467 51.9175 54.1267 51.6841 54.36C51.2175 55.06 50.7041 55.7133 50.1441 56.32C49.5841 56.88 48.9075 57.3233 48.1141 57.65C46.8075 58.2567 45.4775 58.3033 44.1241 57.79C42.8175 57.23 41.9075 56.2733 41.3941 54.92C40.3675 52.3067 40.0641 49.81 40.4841 47.43C40.9508 45.05 42.0241 42.7867 43.7041 40.64C44.6375 39.4733 45.7341 38.6567 46.9941 38.19C48.3008 37.6767 49.7241 37.5833 51.2641 37.91C51.3575 37.91 51.4275 37.9333 51.4741 37.98C51.5675 37.98 51.6608 37.98 51.7541 37.98C51.9408 37.6067 51.9875 37.28 51.8941 37C51.8008 36.6733 51.7308 36.3467 51.6841 36.02C51.4975 34.9933 51.2641 34.0133 50.9841 33.08C50.7508 32.1467 50.4475 31.2367 50.0741 30.35C49.5141 29.1367 49.0008 28.4833 48.5341 28.39C48.1141 28.2967 47.4141 28.67 46.4341 29.51C44.8941 30.8167 43.5641 32.38 42.4441 34.2C42.0708 34.6667 41.8841 35.1333 41.8841 35.6C41.8841 36.6267 41.3941 37.28 40.4141 37.56C40.0875 37.6533 39.6908 37.6067 39.2241 37.42C38.7575 37.2333 38.3841 36.9767 38.1041 36.65C37.4975 35.7167 37.2875 34.69 37.4741 33.57C37.6608 32.4967 37.9641 31.4933 38.3841 30.56C38.8041 29.58 39.3175 28.67 39.9241 27.83C40.5775 26.8967 41.2775 26.0567 42.0241 25.31C42.7708 24.5167 43.6108 23.8167 44.5441 23.21C46.0375 22.2767 47.6475 21.88 49.3741 22.02C51.1475 22.1133 52.7108 22.93 54.0641 24.47C54.6708 25.0767 55.1375 25.7533 55.4641 26.5C55.8375 27.2 56.1875 27.9467 56.5141 28.74C57.0275 30.1867 57.4475 31.6567 57.7741 33.15C58.1475 34.6433 58.4275 36.16 58.6141 37.7C58.8475 39.8 59.0575 41.8767 59.2441 43.93C59.4308 45.9833 59.5941 48.06 59.7341 50.16C59.8741 51.3733 59.8741 52.61 59.7341 53.87C59.6408 55.27 59.0575 56.2733 57.9841 56.88C56.9108 57.44 55.7908 57.3467 54.6241 56.6C54.1575 56.2733 53.8308 55.8767 53.6441 55.41C53.4575 54.9433 53.3175 54.4533 53.2241 53.94C53.1775 53.7067 53.1541 53.4967 53.1541 53.31C53.1541 53.0767 53.1075 52.8433 53.0141 52.61ZM47.0641 51C47.8108 50.2067 48.5341 49.4367 49.2341 48.69C49.9341 47.8967 50.5408 47.0333 51.0541 46.1C51.1941 45.82 51.1708 45.4933 50.9841 45.12C50.8441 44.7 50.6108 44.3967 50.2841 44.21C49.9575 43.9767 49.7008 43.9533 49.5141 44.14C49.3741 44.28 49.1875 44.3967 48.9541 44.49C48.9075 44.5833 48.8375 44.6767 48.7441 44.77C48.6508 44.8633 48.5808 44.9567 48.5341 45.05C47.9275 45.9367 47.4841 46.87 47.2041 47.85C46.9241 48.7833 46.8775 49.8333 47.0641 51ZM73.558 48.2C73.7914 47.5933 73.978 47.0567 74.118 46.59C74.258 46.0767 74.3747 45.5867 74.468 45.12C74.9814 43.3933 75.448 41.6433 75.868 39.87C76.288 38.0967 76.7314 36.3233 77.198 34.55C77.3847 33.6633 77.7114 32.7533 78.178 31.82C78.5047 30.98 78.9714 30.2567 79.578 29.65C80.2314 29.0433 80.9547 28.53 81.748 28.11C82.728 27.6433 83.568 27.76 84.268 28.46C84.9214 29.1133 84.9447 29.8367 84.338 30.63C84.1514 31.0033 84.0347 31.4 83.988 31.82C83.9414 32.1933 83.8947 32.5667 83.848 32.94C83.5214 34.5733 83.1247 36.1833 82.658 37.77C82.238 39.3567 81.8647 40.9667 81.538 42.6C81.2114 44.1867 80.8847 45.75 80.558 47.29C80.2314 48.83 79.8114 50.3933 79.298 51.98C79.1114 52.7267 78.9014 53.45 78.668 54.15C78.4347 54.8033 78.1547 55.5033 77.828 56.25C77.688 56.5767 77.5247 56.9033 77.338 57.23C77.1514 57.51 76.9414 57.79 76.708 58.07C75.8214 59.0967 74.7714 59.61 73.558 59.61C72.3447 59.61 71.2947 59.0967 70.408 58.07C69.9414 57.5567 69.568 56.9967 69.288 56.39C69.008 55.7367 68.7514 55.06 68.518 54.36C67.7247 52.1667 67.118 49.9267 66.698 47.64C66.278 45.3067 65.928 42.9967 65.648 40.71C65.508 39.73 65.3914 38.75 65.298 37.77C65.2514 36.7433 65.2047 35.74 65.158 34.76C65.158 34.1067 65.1814 33.4767 65.228 32.87C65.3214 32.2167 65.4614 31.5867 65.648 30.98C65.788 30.5133 65.998 30.0467 66.278 29.58C66.9314 28.7867 67.6547 28.4133 68.448 28.46C69.288 28.5067 69.9414 28.9967 70.408 29.93C70.6414 30.4433 70.828 30.98 70.968 31.54C71.108 32.1 71.2014 32.6833 71.248 33.29C71.4814 35.4833 71.738 37.7 72.018 39.94C72.3447 42.1333 72.718 44.3267 73.138 46.52C73.1847 46.7533 73.2314 47.01 73.278 47.29C73.3714 47.5233 73.4647 47.8267 73.558 48.2ZM88.4686 45.47C88.4686 43.2767 88.7719 41.1767 89.3786 39.17C90.0319 37.1167 90.8719 35.11 91.8986 33.15C92.4119 32.2167 93.0186 31.33 93.7186 30.49C94.4186 29.65 95.2119 28.9267 96.0986 28.32C97.3119 27.48 98.5719 26.99 99.8786 26.85C101.279 26.7567 102.539 27.06 103.659 27.76C104.779 28.46 105.642 29.4167 106.249 30.63C106.855 31.7967 107.042 33.1267 106.809 34.62C106.762 35.04 106.669 35.4833 106.529 35.95C106.389 36.4167 106.202 36.86 105.969 37.28C105.362 38.4467 104.639 39.5667 103.799 40.64C103.005 41.6667 102.025 42.5767 100.859 43.37C100.112 43.8833 99.3186 44.3267 98.4786 44.7C97.6853 45.0267 96.8219 45.1667 95.8886 45.12C95.5619 45.12 95.3519 45.1667 95.2586 45.26C95.2119 45.3533 95.1886 45.5633 95.1886 45.89C95.1419 46.6367 95.1886 47.3833 95.3286 48.13C95.4686 48.8767 95.6553 49.6233 95.8886 50.37C96.1686 50.9767 96.4253 51.3267 96.6586 51.42C96.8919 51.5133 97.3119 51.3733 97.9186 51C98.8053 50.5333 99.5986 49.9033 100.299 49.11C100.719 48.7367 101.139 48.41 101.559 48.13C101.979 47.8033 102.399 47.4767 102.819 47.15C103.005 46.9633 103.285 46.7767 103.659 46.59C104.359 46.3567 104.942 46.4267 105.409 46.8C105.922 47.1267 106.179 47.6633 106.179 48.41C106.179 48.7367 106.155 49.0633 106.109 49.39C106.062 49.7167 105.992 50.0433 105.899 50.37C105.292 52.1433 104.429 53.6833 103.309 54.99C102.189 56.2967 100.672 57.2533 98.7586 57.86C96.0986 58.56 93.7886 57.93 91.8286 55.97C90.8019 54.9433 90.0786 53.8 89.6586 52.54C89.2386 51.28 88.9119 49.9733 88.6786 48.62C88.6319 48.1067 88.5853 47.5933 88.5386 47.08C88.5386 46.52 88.5153 45.9833 88.4686 45.47ZM101.559 33.92C101.559 33.5933 101.535 33.3133 101.489 33.08C101.442 32.8 101.302 32.6133 101.069 32.52C100.742 32.3333 100.322 32.45 99.8086 32.87C99.6219 32.9633 99.4586 33.08 99.3186 33.22C99.1786 33.36 99.0153 33.5233 98.8286 33.71C98.2219 34.4567 97.7086 35.2733 97.2886 36.16C96.9153 37.0467 96.5653 37.9333 96.2386 38.82C96.0053 39.1467 96.0286 39.4033 96.3086 39.59C96.4019 39.6833 96.5186 39.73 96.6586 39.73C96.8453 39.6833 96.9853 39.6367 97.0786 39.59C99.1786 38.4233 100.649 36.6967 101.489 34.41C101.535 34.3167 101.559 34.2233 101.559 34.13C101.559 33.99 101.559 33.92 101.559 33.92ZM130.039 48.62C129.619 49.3667 129.246 50.0433 128.919 50.65C128.639 51.21 128.313 51.7933 127.939 52.4C127.333 53.2867 126.703 54.1033 126.049 54.85C125.396 55.55 124.626 56.2033 123.739 56.81C122.059 57.93 120.309 58.35 118.489 58.07C116.436 57.65 114.849 56.4833 113.729 54.57C113.169 53.59 112.773 52.5867 112.539 51.56C112.306 50.4867 112.189 49.3667 112.189 48.2C112.236 45.1667 112.843 42.4133 114.009 39.94C115.176 37.4667 116.809 35.2033 118.909 33.15C119.563 32.59 120.239 32.0533 120.939 31.54C121.639 31.0267 122.433 30.7 123.319 30.56C124.113 30.3733 124.859 30.3033 125.559 30.35C126.306 30.3967 127.053 30.5367 127.799 30.77C127.893 30.8167 128.033 30.8633 128.219 30.91C128.406 30.91 128.593 30.8633 128.779 30.77C128.779 30.0233 128.779 29.2533 128.779 28.46C128.826 27.62 128.826 26.8033 128.779 26.01C128.779 24.19 128.849 22.4167 128.989 20.69C129.036 19.6167 129.036 18.5667 128.989 17.54C128.989 16.5133 128.989 15.4867 128.989 14.46C129.036 13.5733 129.059 12.6633 129.059 11.73C129.106 10.7967 129.176 9.88666 129.269 9C129.363 8.34666 129.479 7.71666 129.619 7.11C129.806 6.50333 130.086 5.94333 130.459 5.43C130.786 4.68333 131.346 4.31 132.139 4.31C133.073 4.17 133.773 4.54333 134.239 5.43C134.566 5.94333 134.799 6.50333 134.939 7.11C135.126 7.67 135.243 8.27666 135.289 8.93C135.429 10.0967 135.499 11.2867 135.499 12.5C135.546 13.7133 135.546 14.9267 135.499 16.14C135.499 18.94 135.476 21.7633 135.429 24.61C135.383 27.41 135.336 30.2333 135.289 33.08C135.289 34.6667 135.289 36.2533 135.289 37.84C135.336 39.38 135.336 40.9433 135.289 42.53C135.243 44.1167 135.219 45.7267 135.219 47.36C135.219 48.9467 135.313 50.5567 135.499 52.19C135.499 52.89 135.593 53.59 135.779 54.29C136.246 55.5033 135.896 56.4133 134.729 57.02C133.749 57.4867 132.839 57.2067 131.999 56.18C131.813 55.8533 131.649 55.5033 131.509 55.13C131.369 54.7567 131.253 54.4067 131.159 54.08C130.973 53.24 130.786 52.3767 130.599 51.49C130.459 50.5567 130.273 49.6 130.039 48.62ZM126.539 36.65C126.026 36.5567 125.583 36.6033 125.209 36.79C124.836 36.93 124.486 37.1167 124.159 37.35C123.739 37.63 123.366 37.9567 123.039 38.33C122.713 38.6567 122.386 39.03 122.059 39.45C120.939 40.8967 120.076 42.4133 119.469 44C118.909 45.5867 118.723 47.29 118.909 49.11C118.909 49.53 118.933 49.9967 118.979 50.51C119.073 50.9767 119.329 51.2567 119.749 51.35C120.123 51.4433 120.449 51.3267 120.729 51C121.056 50.6267 121.313 50.2767 121.499 49.95C122.433 48.69 123.179 47.4067 123.739 46.1C124.346 44.7933 124.859 43.4167 125.279 41.97C125.559 41.0833 125.793 40.22 125.979 39.38C126.166 38.4933 126.353 37.5833 126.539 36.65ZM174.883 48.62C174.463 49.3667 174.09 50.0433 173.763 50.65C173.483 51.21 173.156 51.7933 172.783 52.4C172.176 53.2867 171.546 54.1033 170.893 54.85C170.24 55.55 169.47 56.2033 168.583 56.81C166.903 57.93 165.153 58.35 163.333 58.07C161.28 57.65 159.693 56.4833 158.573 54.57C158.013 53.59 157.616 52.5867 157.383 51.56C157.15 50.4867 157.033 49.3667 157.033 48.2C157.08 45.1667 157.686 42.4133 158.853 39.94C160.02 37.4667 161.653 35.2033 163.753 33.15C164.406 32.59 165.083 32.0533 165.783 31.54C166.483 31.0267 167.276 30.7 168.163 30.56C168.956 30.3733 169.703 30.3033 170.403 30.35C171.15 30.3967 171.896 30.5367 172.643 30.77C172.736 30.8167 172.876 30.8633 173.063 30.91C173.25 30.91 173.436 30.8633 173.623 30.77C173.623 30.0233 173.623 29.2533 173.623 28.46C173.67 27.62 173.67 26.8033 173.623 26.01C173.623 24.19 173.693 22.4167 173.833 20.69C173.88 19.6167 173.88 18.5667 173.833 17.54C173.833 16.5133 173.833 15.4867 173.833 14.46C173.88 13.5733 173.903 12.6633 173.903 11.73C173.95 10.7967 174.02 9.88666 174.113 9C174.206 8.34666 174.323 7.71666 174.463 7.11C174.65 6.50333 174.93 5.94333 175.303 5.43C175.63 4.68333 176.19 4.31 176.983 4.31C177.916 4.17 178.616 4.54333 179.083 5.43C179.41 5.94333 179.643 6.50333 179.783 7.11C179.97 7.67 180.086 8.27666 180.133 8.93C180.273 10.0967 180.343 11.2867 180.343 12.5C180.39 13.7133 180.39 14.9267 180.343 16.14C180.343 18.94 180.32 21.7633 180.273 24.61C180.226 27.41 180.18 30.2333 180.133 33.08C180.133 34.6667 180.133 36.2533 180.133 37.84C180.18 39.38 180.18 40.9433 180.133 42.53C180.086 44.1167 180.063 45.7267 180.063 47.36C180.063 48.9467 180.156 50.5567 180.343 52.19C180.343 52.89 180.436 53.59 180.623 54.29C181.09 55.5033 180.74 56.4133 179.573 57.02C178.593 57.4867 177.683 57.2067 176.843 56.18C176.656 55.8533 176.493 55.5033 176.353 55.13C176.213 54.7567 176.096 54.4067 176.003 54.08C175.816 53.24 175.63 52.3767 175.443 51.49C175.303 50.5567 175.116 49.6 174.883 48.62ZM171.383 36.65C170.87 36.5567 170.426 36.6033 170.053 36.79C169.68 36.93 169.33 37.1167 169.003 37.35C168.583 37.63 168.21 37.9567 167.883 38.33C167.556 38.6567 167.23 39.03 166.903 39.45C165.783 40.8967 164.92 42.4133 164.313 44C163.753 45.5867 163.566 47.29 163.753 49.11C163.753 49.53 163.776 49.9967 163.823 50.51C163.916 50.9767 164.173 51.2567 164.593 51.35C164.966 51.4433 165.293 51.3267 165.573 51C165.9 50.6267 166.156 50.2767 166.343 49.95C167.276 48.69 168.023 47.4067 168.583 46.1C169.19 44.7933 169.703 43.4167 170.123 41.97C170.403 41.0833 170.636 40.22 170.823 39.38C171.01 38.4933 171.196 37.5833 171.383 36.65ZM192.454 35.18C192.781 34.9467 192.991 34.7133 193.084 34.48C193.177 34.2 193.271 33.9667 193.364 33.78C193.784 32.9867 194.274 32.24 194.834 31.54C195.394 30.7933 196.071 30.1867 196.864 29.72C197.937 29.0667 198.987 28.6933 200.014 28.6C201.087 28.46 202.161 28.7167 203.234 29.37C204.027 29.79 204.611 30.42 204.984 31.26C205.404 32.1 205.521 32.94 205.334 33.78C205.194 34.6667 204.821 35.25 204.214 35.53C203.607 35.81 202.907 35.7167 202.114 35.25C201.694 35.0167 201.344 34.9 201.064 34.9C200.784 34.9 200.457 35.0867 200.084 35.46C199.897 35.6467 199.711 35.88 199.524 36.16C199.384 36.44 199.221 36.6967 199.034 36.93C198.707 37.6767 198.427 38.4233 198.194 39.17C197.961 39.87 197.727 40.5933 197.494 41.34C197.074 42.7867 196.677 44.2567 196.304 45.75C195.977 47.1967 195.697 48.6667 195.464 50.16C195.371 51.0933 195.277 52.0267 195.184 52.96C195.091 53.8933 195.044 54.8267 195.044 55.76C195.044 56.0867 195.021 56.4367 194.974 56.81C194.974 57.1833 194.904 57.5567 194.764 57.93C194.297 59.33 193.341 60.03 191.894 60.03C190.447 60.17 189.397 59.5867 188.744 58.28C188.557 57.9067 188.417 57.51 188.324 57.09C188.277 56.67 188.207 56.2967 188.114 55.97C187.787 54.01 187.507 52.0733 187.274 50.16C187.041 48.2 186.807 46.24 186.574 44.28C186.387 42.3667 186.271 40.43 186.224 38.47C186.177 36.4633 186.177 34.4567 186.224 32.45C186.224 31.1433 186.714 30.1867 187.694 29.58C188.534 29.0667 189.397 28.9967 190.284 29.37C191.171 29.6967 191.754 30.3267 192.034 31.26C192.314 32.0067 192.454 32.7533 192.454 33.5C192.407 33.7333 192.384 33.99 192.384 34.27C192.431 34.55 192.454 34.8533 192.454 35.18ZM214.895 23.42C213.542 24.0267 212.375 23.84 211.395 22.86C211.068 22.4867 210.858 21.9967 210.765 21.39C210.672 20.7833 210.742 20.2 210.975 19.64C211.255 19.0333 211.722 18.5433 212.375 18.17C213.028 17.75 213.682 17.54 214.335 17.54C215.688 17.54 216.598 18.17 217.065 19.43C217.298 19.99 217.322 20.5733 217.135 21.18C216.995 21.74 216.668 22.23 216.155 22.65C215.968 22.8367 215.758 23 215.525 23.14C215.338 23.2333 215.128 23.3267 214.895 23.42ZM217.695 52.47C217.882 53.45 217.578 54.15 216.785 54.57C215.945 54.99 215.105 54.8967 214.265 54.29C213.892 53.9633 213.612 53.59 213.425 53.17C213.238 52.75 213.052 52.3067 212.865 51.84C212.725 51.1867 212.585 50.51 212.445 49.81C212.352 49.11 212.258 48.4333 212.165 47.78C211.885 45.4467 211.652 43.1133 211.465 40.78C211.325 38.4 211.348 36.0433 211.535 33.71C211.582 33.1967 211.652 32.6833 211.745 32.17C211.838 31.61 212.048 31.0967 212.375 30.63C212.608 30.1633 212.912 29.79 213.285 29.51C213.705 29.23 214.195 29.09 214.755 29.09C215.828 29.1367 216.598 29.6967 217.065 30.77C217.485 31.61 217.695 32.52 217.695 33.5V43.16C217.648 43.72 217.602 44.3967 217.555 45.19C217.508 45.9833 217.485 46.8467 217.485 47.78C217.485 48.5267 217.485 49.2967 217.485 50.09C217.532 50.8833 217.602 51.6767 217.695 52.47ZM236.928 39.45C236.088 40.1967 235.482 40.9667 235.108 41.76C234.128 43.4867 233.335 45.3067 232.728 47.22C232.122 49.1333 231.655 51.0933 231.328 53.1C231.282 53.5667 231.188 54.0333 231.048 54.5C230.908 54.9667 230.722 55.3867 230.488 55.76C229.788 56.9267 228.855 57.44 227.688 57.3C227.082 57.3 226.568 57.1367 226.148 56.81C225.728 56.4833 225.355 56.0633 225.028 55.55C224.842 55.13 224.702 54.6867 224.608 54.22C224.562 53.7533 224.492 53.2867 224.398 52.82C224.165 50.9533 223.908 49.0867 223.628 47.22C223.395 45.3067 223.232 43.4167 223.138 41.55C223.045 40.29 223.045 39.03 223.138 37.77C223.232 36.51 223.372 35.25 223.558 33.99C223.558 33.7567 223.605 33.5467 223.698 33.36C223.792 33.1267 223.862 32.9167 223.908 32.73C224.328 31.5633 225.098 31.05 226.218 31.19C226.685 31.2367 227.105 31.4467 227.478 31.82C227.852 32.1933 228.062 32.6367 228.108 33.15C228.248 34.27 228.365 35.3667 228.458 36.44C228.598 37.5133 228.762 38.5867 228.948 39.66C228.995 39.8467 229.018 40.08 229.018 40.36C229.018 40.5933 229.088 40.8267 229.228 41.06C229.462 40.9667 229.602 40.85 229.648 40.71C229.695 40.5233 229.742 40.36 229.788 40.22C230.255 39.2867 230.722 38.3767 231.188 37.49C231.655 36.5567 232.192 35.7167 232.798 34.97C233.078 34.5967 233.358 34.2467 233.638 33.92C233.918 33.5467 234.245 33.22 234.618 32.94C235.832 31.96 237.138 31.5867 238.538 31.82C239.938 32.0067 241.082 32.7767 241.968 34.13C242.388 34.8767 242.715 35.67 242.948 36.51C243.182 37.3033 243.345 38.12 243.438 38.96C243.672 40.36 243.858 41.7833 243.998 43.23C244.185 44.63 244.372 46.03 244.558 47.43C244.652 48.27 244.768 49.11 244.908 49.95C245.095 50.7433 245.235 51.56 245.328 52.4C245.422 52.7267 245.538 53.0067 245.678 53.24C245.818 53.4733 246.052 53.7067 246.378 53.94C247.358 54.4533 247.662 55.27 247.288 56.39C246.868 57.5567 246.145 58.28 245.118 58.56C244.092 58.84 243.112 58.6067 242.178 57.86C241.758 57.4867 241.408 57.09 241.128 56.67C240.848 56.25 240.592 55.8067 240.358 55.34C239.612 53.9867 239.052 52.61 238.678 51.21C238.305 49.81 238.025 48.34 237.838 46.8C237.698 45.7267 237.582 44.63 237.488 43.51C237.395 42.39 237.232 41.2933 236.998 40.22C236.998 40.1267 236.975 40.0333 236.928 39.94C236.928 39.8 236.928 39.6367 236.928 39.45ZM260.508 39.24C260.788 38.8667 261.044 38.4933 261.278 38.12C261.558 37.7467 261.838 37.3967 262.118 37.07C262.958 35.81 263.751 34.5267 264.498 33.22C265.244 31.9133 265.991 30.63 266.738 29.37C266.878 29.0433 267.064 28.7633 267.298 28.53C267.578 28.2967 267.834 28.0867 268.068 27.9C268.814 27.5267 269.514 27.5267 270.168 27.9C270.868 28.2267 271.264 28.7867 271.358 29.58C271.451 30.5133 271.334 31.2833 271.008 31.89C270.121 33.7567 269.188 35.5767 268.208 37.35C267.228 39.0767 266.061 40.6867 264.708 42.18C264.241 42.6933 264.008 43.02 264.008 43.16C264.008 43.2533 264.218 43.6033 264.638 44.21C265.571 45.47 266.598 46.6367 267.718 47.71C268.838 48.7367 270.074 49.67 271.428 50.51C271.661 50.6033 271.871 50.72 272.058 50.86C272.244 50.9533 272.454 51.0467 272.688 51.14C273.994 51.3733 274.694 52.0967 274.788 53.31C274.881 53.9167 274.741 54.5 274.368 55.06C274.041 55.5733 273.621 55.9467 273.108 56.18C272.594 56.3667 272.058 56.4833 271.498 56.53C270.984 56.53 270.471 56.4833 269.958 56.39C267.998 55.83 266.248 54.9433 264.708 53.73C264.054 53.2167 263.401 52.6567 262.748 52.05C262.141 51.4433 261.511 50.86 260.858 50.3C260.904 50.9533 260.951 51.6067 260.998 52.26C261.044 52.9133 261.091 53.59 261.138 54.29C261.231 54.6167 261.301 54.9667 261.348 55.34C261.394 55.7133 261.464 56.0633 261.558 56.39C261.698 57.3233 261.418 57.9767 260.718 58.35C260.064 58.8633 259.364 58.84 258.618 58.28C258.011 57.86 257.568 57.3 257.288 56.6C256.961 55.8067 256.704 54.9667 256.518 54.08C256.331 53.1933 256.168 52.3067 256.028 51.42C255.654 49.8333 255.351 48.2467 255.118 46.66C254.884 45.0267 254.698 43.3933 254.558 41.76C254.371 39.9867 254.138 38.2133 253.858 36.44C253.624 34.62 253.461 32.8233 253.368 31.05C253.274 29.7433 253.181 28.4367 253.088 27.13C252.994 25.8233 252.948 24.5167 252.948 23.21C252.948 21.2033 252.901 19.1967 252.808 17.19C252.714 15.1367 252.668 13.1067 252.668 11.1C252.714 9.84 252.738 8.60333 252.738 7.39C252.738 6.17666 252.808 4.96333 252.948 3.75C253.041 3.37666 253.111 3.05 253.158 2.77C253.251 2.49 253.391 2.23333 253.578 2C254.371 0.973332 255.351 0.553332 256.518 0.739999C257.124 0.879997 257.638 1.16 258.058 1.58C258.524 1.95333 258.781 2.46666 258.828 3.12C258.921 3.4 258.968 3.68 258.968 3.96C258.968 4.19333 258.968 4.47333 258.968 4.8C259.108 7.36666 259.201 9.93333 259.248 12.5C259.341 15.0667 259.411 17.6567 259.458 20.27C259.551 23.35 259.668 26.4533 259.808 29.58C259.994 32.66 260.134 35.74 260.228 38.82C260.228 39.0533 260.321 39.1933 260.508 39.24ZM288.09 52.68C287.763 52.5867 287.437 52.4933 287.11 52.4C286.83 52.26 286.527 52.1433 286.2 52.05C279.853 49.6233 276.423 45.0733 275.91 38.4C275.723 36.2533 276.05 34.27 276.89 32.45C277.73 30.63 279.037 29.09 280.81 27.83C281.93 27.0367 283.097 26.5233 284.31 26.29C285.523 26.0567 286.783 26.29 288.09 26.99C288.51 27.1767 288.907 27.4333 289.28 27.76C289.7 28.0867 290.027 28.46 290.26 28.88C292.733 32.6133 293.153 36.5567 291.52 40.71C291.38 41.2233 291.053 41.62 290.54 41.9C290.073 42.18 289.607 42.2733 289.14 42.18C288.067 42.0867 287.46 41.3633 287.32 40.01C287.32 39.3567 287.32 38.7267 287.32 38.12C287.367 37.4667 287.343 36.8367 287.25 36.23C287.203 35.7167 287.087 35.2267 286.9 34.76C286.76 34.2467 286.527 33.78 286.2 33.36C285.687 32.8 285.15 32.73 284.59 33.15C284.03 33.6167 283.587 34.1767 283.26 34.83C282.933 35.4367 282.677 36.1133 282.49 36.86C282.257 38.4467 282.583 40.0333 283.47 41.62C284.403 43.2067 285.523 44.35 286.83 45.05C287.623 45.47 288.417 45.82 289.21 46.1C290.003 46.3333 290.843 46.5433 291.73 46.73C292.15 46.8233 292.547 46.94 292.92 47.08C293.34 47.22 293.76 47.3367 294.18 47.43C295.253 47.85 296.023 48.55 296.49 49.53C296.957 50.4633 297.05 51.49 296.77 52.61C296.583 53.6367 296.07 54.57 295.23 55.41C294.203 56.5767 293.037 57.5567 291.73 58.35C290.423 59.1433 289.093 59.9133 287.74 60.66C286.9 61.08 286.06 61.4533 285.22 61.78C284.427 62.1533 283.563 62.41 282.63 62.55C282.21 62.5967 281.79 62.5967 281.37 62.55C280.997 62.5033 280.6 62.4333 280.18 62.34C279.013 61.9667 278.313 61.29 278.08 60.31C277.847 59.3767 277.893 58.5133 278.22 57.72C278.453 57.0667 278.803 56.5067 279.27 56.04C279.643 55.7133 280.017 55.5033 280.39 55.41C280.81 55.3167 281.207 55.3867 281.58 55.62C281.907 55.8067 282.187 55.8767 282.42 55.83C282.653 55.7833 282.887 55.7133 283.12 55.62C283.773 55.2467 284.427 54.8967 285.08 54.57C285.78 54.2433 286.457 53.8933 287.11 53.52C287.297 53.4267 287.483 53.31 287.67 53.17C287.857 53.03 287.997 52.8667 288.09 52.68Z" fill="#F76372"/>
</g>
<defs>
<filter id="filter0_d_2_101" x="0.519989" y="0.460022" width="300.67" height="70.16" filterUnits="userSpaceOnUse" color-interpolation-filters="sRGB">
<feFlood flood-opacity="0" result="BackgroundImageFix"/>
<feColorMatrix in="SourceAlpha" type="matrix" values="0 0 0 0 0 0 0 0 0 0 0 0 0 0 0 0 0 0 127 0" result="hardAlpha"/>
<feOffset dy="4"/>
<feGaussianBlur stdDeviation="2"/>
<feComposite in2="hardAlpha" operator="out"/>
<feColorMatrix type="matrix" values="0 0 0 0 0 0 0 0 0 0 0 0 0 0 0 0 0 0 0.25 0"/>
<feBlend mode="normal" in2="BackgroundImageFix" result="effect1_dropShadow_2_101"/>
<feBlend mode="normal" in="SourceGraphic" in2="effect1_dropShadow_2_101" result="shape"/>
</filter>
</defs>
</svg>
