<svg width="228" height="36" viewBox="0 0 228 36" fill="none" xmlns="http://www.w3.org/2000/svg">
<g filter="url(#filter0_d_2_94)">
<path d="M9.106 3.268V27H4.346V3.268H9.106ZM19.3509 12.074V21.186C19.3509 21.8207 19.4982 22.2853 19.7929 22.58C20.1102 22.852 20.6316 22.988 21.3569 22.988H23.5669V27H20.5749C16.5629 27 14.5569 25.0507 14.5569 21.152V12.074H12.3129V8.164H14.5569V3.506H19.3509V8.164H23.5669V12.074H19.3509ZM27.9425 3.268H32.9405L29.2685 11.836H26.0045L27.9425 3.268ZM43.5618 27.306C42.0205 27.306 40.6378 27.034 39.4138 26.49C38.1898 25.9233 37.2151 25.164 36.4898 24.212C35.7871 23.26 35.4018 22.206 35.3338 21.05H40.1278C40.2185 21.7753 40.5698 22.376 41.1818 22.852C41.8165 23.328 42.5985 23.566 43.5278 23.566C44.4345 23.566 45.1371 23.3847 45.6358 23.022C46.1571 22.6593 46.4178 22.1947 46.4178 21.628C46.4178 21.016 46.1005 20.5627 45.4658 20.268C44.8538 19.9507 43.8678 19.6107 42.5078 19.248C41.1025 18.908 39.9465 18.5567 39.0398 18.194C38.1558 17.8313 37.3851 17.276 36.7278 16.528C36.0931 15.78 35.7758 14.7713 35.7758 13.502C35.7758 12.4593 36.0705 11.5073 36.6598 10.646C37.2718 9.78467 38.1331 9.10467 39.2438 8.606C40.3771 8.10733 41.7031 7.858 43.2218 7.858C45.4658 7.858 47.2565 8.42467 48.5938 9.558C49.9311 10.6687 50.6678 12.176 50.8038 14.08H46.2478C46.1798 13.332 45.8625 12.7427 45.2958 12.312C44.7518 11.8587 44.0151 11.632 43.0858 11.632C42.2245 11.632 41.5558 11.7907 41.0798 12.108C40.6265 12.4253 40.3998 12.8673 40.3998 13.434C40.3998 14.0687 40.7171 14.556 41.3518 14.896C41.9865 15.2133 42.9725 15.542 44.3098 15.882C45.6698 16.222 46.7918 16.5733 47.6758 16.936C48.5598 17.2987 49.3191 17.8653 49.9538 18.636C50.6111 19.384 50.9511 20.3813 50.9738 21.628C50.9738 22.716 50.6678 23.6907 50.0558 24.552C49.4665 25.4133 48.6051 26.0933 47.4718 26.592C46.3611 27.068 45.0578 27.306 43.5618 27.306ZM68.5247 12.074V21.186C68.5247 21.8207 68.6721 22.2853 68.9667 22.58C69.2841 22.852 69.8054 22.988 70.5307 22.988H72.7407V27H69.7487C65.7367 27 63.7307 25.0507 63.7307 21.152V12.074H61.4867V8.164H63.7307V3.506H68.5247V8.164H72.7407V12.074H68.5247ZM78.5784 5.92C77.7397 5.92 77.037 5.65933 76.4704 5.138C75.9264 4.594 75.6544 3.92533 75.6544 3.132C75.6544 2.33867 75.9264 1.68133 76.4704 1.16C77.037 0.615999 77.7397 0.343999 78.5784 0.343999C79.417 0.343999 80.1084 0.615999 80.6524 1.16C81.219 1.68133 81.5024 2.33867 81.5024 3.132C81.5024 3.92533 81.219 4.594 80.6524 5.138C80.1084 5.65933 79.417 5.92 78.5784 5.92ZM80.9244 8.164V27H76.1644V8.164H80.9244ZM109.019 7.892C111.331 7.892 113.19 8.606 114.595 10.034C116.023 11.4393 116.737 13.4113 116.737 15.95V27H111.977V16.596C111.977 15.1227 111.603 14.0007 110.855 13.23C110.107 12.4367 109.087 12.04 107.795 12.04C106.503 12.04 105.472 12.4367 104.701 13.23C103.953 14.0007 103.579 15.1227 103.579 16.596V27H98.8193V16.596C98.8193 15.1227 98.4453 14.0007 97.6973 13.23C96.9493 12.4367 95.9293 12.04 94.6373 12.04C93.3226 12.04 92.2799 12.4367 91.5093 13.23C90.7613 14.0007 90.3873 15.1227 90.3873 16.596V27H85.6273V8.164H90.3873V10.442C90.9993 9.64867 91.7813 9.02533 92.7333 8.572C93.7079 8.11867 94.7733 7.892 95.9293 7.892C97.4026 7.892 98.7173 8.20933 99.8733 8.844C101.029 9.456 101.925 10.34 102.559 11.496C103.171 10.408 104.055 9.53533 105.211 8.878C106.39 8.22067 107.659 7.892 109.019 7.892ZM138.764 17.174C138.764 17.854 138.719 18.466 138.628 19.01H124.858C124.972 20.37 125.448 21.4353 126.286 22.206C127.125 22.9767 128.156 23.362 129.38 23.362C131.148 23.362 132.406 22.6027 133.154 21.084H138.288C137.744 22.8973 136.702 24.3933 135.16 25.572C133.619 26.728 131.726 27.306 129.482 27.306C127.669 27.306 126.037 26.9093 124.586 26.116C123.158 25.3 122.036 24.1553 121.22 22.682C120.427 21.2087 120.03 19.5087 120.03 17.582C120.03 15.6327 120.427 13.9213 121.22 12.448C122.014 10.9747 123.124 9.84133 124.552 9.048C125.98 8.25467 127.624 7.858 129.482 7.858C131.273 7.858 132.871 8.24333 134.276 9.014C135.704 9.78467 136.804 10.884 137.574 12.312C138.368 13.7173 138.764 15.338 138.764 17.174ZM133.834 15.814C133.812 14.59 133.37 13.6153 132.508 12.89C131.647 12.142 130.593 11.768 129.346 11.768C128.168 11.768 127.17 12.1307 126.354 12.856C125.561 13.5587 125.074 14.5447 124.892 15.814H133.834ZM158.976 12.074H155.678V27H150.85V12.074H148.708V8.164H150.85V7.212C150.85 4.9 151.507 3.2 152.822 2.112C154.137 1.024 156.12 0.513999 158.772 0.582V4.594C157.616 4.57133 156.811 4.764 156.358 5.172C155.905 5.58 155.678 6.31667 155.678 7.382V8.164H158.976V12.074ZM170.425 27.306C168.612 27.306 166.98 26.9093 165.529 26.116C164.078 25.3 162.934 24.1553 162.095 22.682C161.279 21.2087 160.871 19.5087 160.871 17.582C160.871 15.6553 161.29 13.9553 162.129 12.482C162.99 11.0087 164.158 9.87533 165.631 9.082C167.104 8.266 168.748 7.858 170.561 7.858C172.374 7.858 174.018 8.266 175.491 9.082C176.964 9.87533 178.12 11.0087 178.959 12.482C179.82 13.9553 180.251 15.6553 180.251 17.582C180.251 19.5087 179.809 21.2087 178.925 22.682C178.064 24.1553 176.885 25.3 175.389 26.116C173.916 26.9093 172.261 27.306 170.425 27.306ZM170.425 23.158C171.286 23.158 172.091 22.954 172.839 22.546C173.61 22.1153 174.222 21.4807 174.675 20.642C175.128 19.8033 175.355 18.7833 175.355 17.582C175.355 15.7913 174.879 14.42 173.927 13.468C172.998 12.4933 171.853 12.006 170.493 12.006C169.133 12.006 167.988 12.4933 167.059 13.468C166.152 14.42 165.699 15.7913 165.699 17.582C165.699 19.3727 166.141 20.7553 167.025 21.73C167.932 22.682 169.065 23.158 170.425 23.158ZM188.502 11.088C189.114 10.0907 189.908 9.30867 190.882 8.742C191.88 8.17533 193.013 7.892 194.282 7.892V12.89H193.024C191.528 12.89 190.395 13.2413 189.624 13.944C188.876 14.6467 188.502 15.8707 188.502 17.616V27H183.742V8.164H188.502V11.088ZM204.366 17.514C204.366 15.61 204.74 13.9213 205.488 12.448C206.259 10.9747 207.29 9.84133 208.582 9.048C209.897 8.25467 211.359 7.858 212.968 7.858C214.373 7.858 215.597 8.14133 216.64 8.708C217.705 9.27467 218.555 9.98867 219.19 10.85V8.164H223.984V27H219.19V24.246C218.578 25.13 217.728 25.8667 216.64 26.456C215.575 27.0227 214.339 27.306 212.934 27.306C211.347 27.306 209.897 26.898 208.582 26.082C207.29 25.266 206.259 24.1213 205.488 22.648C204.74 21.152 204.366 19.4407 204.366 17.514ZM219.19 17.582C219.19 16.426 218.963 15.44 218.51 14.624C218.057 13.7853 217.445 13.1507 216.674 12.72C215.903 12.2667 215.076 12.04 214.192 12.04C213.308 12.04 212.492 12.2553 211.744 12.686C210.996 13.1167 210.384 13.7513 209.908 14.59C209.455 15.406 209.228 16.3807 209.228 17.514C209.228 18.6473 209.455 19.6447 209.908 20.506C210.384 21.3447 210.996 21.9907 211.744 22.444C212.515 22.8973 213.331 23.124 214.192 23.124C215.076 23.124 215.903 22.9087 216.674 22.478C217.445 22.0247 218.057 21.39 218.51 20.574C218.963 19.7353 219.19 18.738 219.19 17.582Z" fill="#1E2742"/>
</g>
<defs>
<filter id="filter0_d_2_94" x="0.346008" y="0.343994" width="227.638" height="34.962" filterUnits="userSpaceOnUse" color-interpolation-filters="sRGB">
<feFlood flood-opacity="0" result="BackgroundImageFix"/>
<feColorMatrix in="SourceAlpha" type="matrix" values="0 0 0 0 0 0 0 0 0 0 0 0 0 0 0 0 0 0 127 0" result="hardAlpha"/>
<feOffset dy="4"/>
<feGaussianBlur stdDeviation="2"/>
<feComposite in2="hardAlpha" operator="out"/>
<feColorMatrix type="matrix" values="0 0 0 0 0 0 0 0 0 0 0 0 0 0 0 0 0 0 0.25 0"/>
<feBlend mode="normal" in2="BackgroundImageFix" result="effect1_dropShadow_2_94"/>
<feBlend mode="normal" in="SourceGraphic" in2="effect1_dropShadow_2_94" result="shape"/>
</filter>
</defs>
</svg>
